<svg width="129" height="16" viewBox="0 0 129 16" fill="none" xmlns="http://www.w3.org/2000/svg">
<path d="M5.72603 1.89761C5.98956 1.29184 6.58727 0.900039 7.24788 0.900039C7.91065 0.900039 8.50987 1.29436 8.77209 1.90305L13.6501 13.2264C14.0237 14.0936 13.3877 15.06 12.4434 15.06C11.9092 15.06 11.4282 14.7366 11.2267 14.2419L10.9 13.44C10.5009 12.4605 9.54846 11.82 8.49071 11.82H5.84184C4.79066 11.82 3.84623 12.4624 3.46 13.44L3.13951 14.2513C2.94669 14.7394 2.4752 15.06 1.95043 15.06C1.02958 15.06 0.410714 14.1159 0.778057 13.2715L5.72603 1.89761ZM7.16714 9.66004C8.22668 9.66004 8.95884 8.6001 8.58379 7.60915C8.09158 6.30862 6.25384 6.30305 5.75375 7.60057C5.3713 8.59287 6.10368 9.66004 7.16714 9.66004Z" fill="#647B64"/>
<path d="M14.6577 2.57923C14.4123 1.73986 15.0417 0.900039 15.9162 0.900039C16.5117 0.900039 17.0324 1.30135 17.1842 1.87721L19.6615 11.2804C19.6646 11.292 19.6751 11.3 19.6871 11.3C19.6987 11.3 19.709 11.2924 19.7124 11.2812L22.4542 2.14177C22.6753 1.40476 23.3537 0.900039 24.1231 0.900039C24.896 0.900039 25.5765 1.40917 25.7947 2.15062L28.4811 11.2811C28.4844 11.2923 28.4948 11.3 28.5065 11.3C28.5184 11.3 28.5289 11.292 28.532 11.2805L31.0725 1.84418C31.2225 1.28714 31.7276 0.900039 32.3045 0.900039C33.1554 0.900039 33.7678 1.71718 33.529 2.53388L30.2124 13.8777C30.0075 14.5784 29.365 15.06 28.6349 15.06C27.9161 15.06 27.2807 14.5929 27.0662 13.9069L24.1127 4.45913C24.1091 4.44777 24.0986 4.44004 24.0867 4.44004C24.0748 4.44004 24.0643 4.44777 24.0608 4.45913L21.1072 13.9069C20.8927 14.5929 20.2573 15.06 19.5385 15.06C18.8085 15.06 18.1659 14.5784 17.961 13.8777L14.6577 2.57923Z" fill="#647B64"/>
<path d="M35.6848 3.90004C35.6848 2.24318 37.028 0.900039 38.6848 0.900039H43.9648C44.5724 0.900039 45.0648 1.39253 45.0648 2.00004C45.0648 2.60755 44.5724 3.10004 43.9648 3.10004H40.0048C39.0107 3.10004 38.2048 3.90593 38.2048 4.90004C38.2048 5.89415 39.0107 6.70004 40.0048 6.70004H43.6448C44.2303 6.70004 44.7048 7.17462 44.7048 7.76004C44.7048 8.34546 44.2303 8.82004 43.6448 8.82004H40.2048C39.1003 8.82004 38.2048 9.71547 38.2048 10.82C38.2048 11.9246 39.1003 12.82 40.2048 12.82H44.3048C44.9234 12.82 45.4248 13.3215 45.4248 13.94C45.4248 14.5586 44.9234 15.06 44.3048 15.06H38.6848C37.028 15.06 35.6848 13.7169 35.6848 12.06V3.90004Z" fill="#647B64"/>
<path d="M56.0078 2.87675C55.5407 3.38943 54.6953 3.35432 54.073 3.04812C54.0398 3.0318 54.0061 3.01578 53.9719 3.00004C53.4919 2.76004 53.0052 2.64004 52.5119 2.64004C52.2185 2.64004 51.9252 2.68004 51.6319 2.76004C51.3385 2.82671 51.0719 2.94004 50.8319 3.10004C50.5919 3.24671 50.3919 3.44671 50.2319 3.70004C50.0852 3.94004 50.0119 4.23337 50.0119 4.58004C50.0119 4.90004 50.0785 5.17337 50.2119 5.40004C50.3452 5.62671 50.5252 5.82004 50.7519 5.98004C50.9919 6.14004 51.2785 6.28004 51.6119 6.40004C51.9452 6.52004 52.3119 6.64004 52.7119 6.76004C53.1652 6.90671 53.6319 7.07337 54.1119 7.26004C54.6052 7.44671 55.0519 7.69337 55.4519 8.00004C55.8652 8.30671 56.1985 8.69337 56.4519 9.16004C56.7185 9.62671 56.8519 10.2067 56.8519 10.9C56.8519 11.66 56.7119 12.3267 56.4319 12.9C56.1519 13.46 55.7785 13.9267 55.3119 14.3C54.8452 14.6734 54.2985 14.9534 53.6719 15.14C53.0452 15.3267 52.3852 15.42 51.6919 15.42C50.7719 15.42 49.8719 15.2534 48.9919 14.92C48.4903 14.7225 48.0407 14.4729 47.6431 14.1714C47.1421 13.7914 47.1923 13.0637 47.652 12.6346C48.1721 12.1492 49.004 12.2487 49.6036 12.6316C49.7326 12.714 49.8687 12.7901 50.0119 12.86C50.5985 13.14 51.1719 13.28 51.7319 13.28C52.0252 13.28 52.3252 13.2467 52.6319 13.18C52.9385 13.1 53.2119 12.9734 53.4519 12.8C53.7052 12.6267 53.9052 12.4134 54.0519 12.16C54.2119 11.8934 54.2919 11.5667 54.2919 11.18C54.2919 10.8067 54.2052 10.5 54.0319 10.26C53.8585 10.0067 53.6252 9.79337 53.3319 9.62004C53.0385 9.43337 52.6919 9.27337 52.2919 9.14004C51.8919 9.00671 51.4719 8.86671 51.0319 8.72004C50.6052 8.58671 50.1785 8.42671 49.7519 8.24004C49.3252 8.05337 48.9385 7.80671 48.5919 7.50004C48.2585 7.19337 47.9852 6.82004 47.7719 6.38004C47.5585 5.92671 47.4519 5.36671 47.4519 4.70004C47.4519 3.98004 47.5985 3.36004 47.8919 2.84004C48.1985 2.32004 48.5919 1.89337 49.0719 1.56004C49.5652 1.21337 50.1185 0.960038 50.7319 0.800038C51.3585 0.626705 51.9919 0.540039 52.6319 0.540039C53.3519 0.540039 54.0785 0.666706 54.8119 0.920039C55.1893 1.04809 55.5412 1.20851 55.8675 1.4013C56.3942 1.71245 56.4197 2.42457 56.0078 2.87675Z" fill="#647B64"/>
<path d="M58.6963 7.94004C58.6963 6.80671 58.8829 5.78671 59.2562 4.88004C59.6429 3.96004 60.1696 3.18004 60.8363 2.54004C61.5163 1.90004 62.3162 1.40671 63.2363 1.06004C64.1696 0.713372 65.1829 0.540039 66.2763 0.540039C67.3829 0.540039 68.4029 0.713372 69.3363 1.06004C70.2696 1.40671 71.0763 1.90004 71.7563 2.54004C72.4363 3.18004 72.9629 3.96004 73.3363 4.88004C73.7229 5.78671 73.9163 6.80671 73.9163 7.94004C73.9163 9.04671 73.7229 10.06 73.3363 10.98C72.9629 11.8867 72.4363 12.6734 71.7563 13.34C71.0763 13.9934 70.2696 14.5067 69.3363 14.88C68.4029 15.24 67.3829 15.42 66.2763 15.42C65.1829 15.42 64.1696 15.24 63.2363 14.88C62.3162 14.5067 61.5163 13.9934 60.8363 13.34C60.1696 12.6734 59.6429 11.8867 59.2562 10.98C58.8829 10.06 58.6963 9.04671 58.6963 7.94004ZM61.4362 7.94004C61.4362 8.70004 61.5496 9.40004 61.7762 10.04C62.0163 10.6667 62.3496 11.2134 62.7762 11.68C63.2162 12.1467 63.7296 12.5134 64.3163 12.78C64.9163 13.0334 65.5763 13.16 66.2963 13.16C67.0163 13.16 67.6763 13.0334 68.2763 12.78C68.8763 12.5134 69.3896 12.1467 69.8163 11.68C70.2563 11.2134 70.5896 10.6667 70.8163 10.04C71.0563 9.40004 71.1763 8.70004 71.1763 7.94004C71.1763 7.20671 71.0563 6.52671 70.8163 5.90004C70.5896 5.27337 70.2629 4.72671 69.8363 4.26004C69.4096 3.79337 68.8963 3.42671 68.2963 3.16004C67.6963 2.89337 67.0296 2.76004 66.2963 2.76004C65.5629 2.76004 64.8963 2.89337 64.2963 3.16004C63.7096 3.42671 63.2029 3.79337 62.7762 4.26004C62.3496 4.72671 62.0163 5.27337 61.7762 5.90004C61.5496 6.52671 61.4362 7.20671 61.4362 7.94004Z" fill="#647B64"/>
<path d="M76.3489 3.21905C76.3489 1.9383 77.3872 0.900039 78.6679 0.900039C79.6414 0.900039 80.5113 1.50809 80.8458 2.42237L83.9586 10.9319C83.9648 10.9488 83.9809 10.96 83.9989 10.96C84.0169 10.96 84.033 10.9487 84.0391 10.9318L87.1134 2.43543C87.4468 1.51393 88.3218 0.900039 89.3017 0.900039C90.587 0.900039 91.6289 1.94196 91.6289 3.22724V13.81C91.6289 14.5004 91.0693 15.06 90.3789 15.06C89.6886 15.06 89.1289 14.5004 89.1289 13.81V3.70369C89.1289 3.69063 89.1183 3.68004 89.1053 3.68004C89.0954 3.68004 89.0866 3.68613 89.0831 3.69533L85.0992 14.2389C84.9125 14.733 84.4394 15.06 83.9111 15.06C83.3807 15.06 82.9061 14.7304 82.7209 14.2334L78.7946 3.6954C78.7912 3.68616 78.7824 3.68004 78.7725 3.68004C78.7595 3.68004 78.7489 3.69061 78.7489 3.70364V13.86C78.7489 14.5228 78.2116 15.06 77.5489 15.06C76.8862 15.06 76.3489 14.5228 76.3489 13.86V3.21905Z" fill="#647B64"/>
<path d="M94.7473 3.90004C94.7473 2.24318 96.0905 0.900039 97.7473 0.900039H103.027C103.635 0.900039 104.127 1.39253 104.127 2.00004C104.127 2.60755 103.635 3.10004 103.027 3.10004H99.0674C98.0732 3.10004 97.2673 3.90593 97.2673 4.90004C97.2673 5.89415 98.0732 6.70004 99.0674 6.70004H102.707C103.293 6.70004 103.767 7.17462 103.767 7.76004C103.767 8.34546 103.293 8.82004 102.707 8.82004H99.2673C98.1628 8.82004 97.2673 9.71547 97.2673 10.82C97.2673 11.9246 98.1628 12.82 99.2673 12.82H103.367C103.986 12.82 104.487 13.3215 104.487 13.94C104.487 14.5586 103.986 15.06 103.367 15.06H97.7473C96.0905 15.06 94.7473 13.7169 94.7473 12.06V3.90004Z" fill="#647B64"/>
<path d="M123.234 9.86004C123.234 10.7134 123.088 11.4867 122.794 12.18C122.501 12.86 122.101 13.44 121.594 13.92C121.088 14.4 120.488 14.7734 119.794 15.04C119.101 15.2934 118.348 15.42 117.534 15.42C116.721 15.42 115.968 15.2934 115.274 15.04C114.581 14.7734 113.974 14.4 113.454 13.92C112.948 13.44 112.548 12.86 112.254 12.18C111.974 11.4867 111.834 10.7134 111.834 9.86004V2.16004C111.834 1.46416 112.398 0.900039 113.094 0.900039C113.79 0.900039 114.354 1.46416 114.354 2.16004V9.76004C114.354 10.1734 114.408 10.5867 114.514 11C114.621 11.4 114.794 11.76 115.034 12.08C115.288 12.4 115.614 12.66 116.014 12.86C116.428 13.06 116.934 13.16 117.534 13.16C118.134 13.16 118.634 13.06 119.034 12.86C119.448 12.66 119.774 12.4 120.014 12.08C120.268 11.76 120.448 11.4 120.554 11C120.661 10.5867 120.714 10.1734 120.714 9.76004V2.16004C120.714 1.46416 121.279 0.900039 121.974 0.900039C122.67 0.900039 123.234 1.46416 123.234 2.16004V9.86004Z" fill="#647B64"/>
<path d="M126.232 2.16004C126.232 1.46416 126.796 0.900039 127.492 0.900039C128.188 0.900039 128.752 1.46416 128.752 2.16004V13.8C128.752 14.4959 128.188 15.06 127.492 15.06C126.796 15.06 126.232 14.4959 126.232 13.8V2.16004Z" fill="#647B64"/>
</svg>
