<svg width="49" height="36" viewBox="0 0 49 36" fill="none" xmlns="http://www.w3.org/2000/svg">
<path d="M20.5284 24.1837C19.8277 24.1837 19.1981 23.7558 18.9403 23.1042L17.9159 20.5153C17.6581 19.8638 17.0285 19.4358 16.3279 19.4358H9.31413C8.60171 19.4358 7.96413 19.878 7.71451 20.5453L6.76841 23.0743C6.51879 23.7415 5.88121 24.1837 5.16879 24.1837H2.56852C1.34805 24.1837 0.52147 22.9406 0.993591 21.8152L9.70557 1.04722C9.97171 0.412797 10.5925 0 11.2805 0H14.675C15.3652 0 15.9876 0.415458 16.2523 1.05291L24.8763 21.8209C25.3433 22.9456 24.5168 24.1837 23.299 24.1837H20.5284ZM14.4653 10.8404C13.9235 9.34435 11.8105 9.33668 11.2579 10.8287L10.6555 12.4551C10.2424 13.5706 11.0676 14.7562 12.2571 14.7562H13.4485C14.6327 14.7562 15.4575 13.5802 15.0543 12.4667L14.4653 10.8404Z" fill="#647B64"/>
<path d="M48.4016 25.3109C48.4016 26.7683 48.1511 28.1005 47.6502 29.3074C47.172 30.4915 46.4774 31.5163 45.5665 32.3816C44.6557 33.2242 43.5512 33.8846 42.2532 34.3628C40.978 34.841 39.5548 35.0801 37.9835 35.0801C36.3895 35.0801 34.9548 34.841 33.6796 34.3628C32.4044 33.8846 31.3227 33.2242 30.4346 32.3816C29.5465 31.5163 28.8634 30.4915 28.3851 29.3074C27.9069 28.1005 27.6678 26.7683 27.6678 25.3109V18.2062C27.6678 17.2629 26.9032 16.4983 25.9599 16.4983H25.8575H20.5556C19.7922 16.4983 19.1215 15.9917 18.9128 15.2573L18.1069 12.4222C17.797 11.3317 18.6161 10.2473 19.7498 10.2473H31.7668C32.71 10.2473 33.4747 11.012 33.4747 11.9552V24.8327C33.4747 25.4931 33.5544 26.1193 33.7138 26.7114C33.8959 27.3035 34.1578 27.8386 34.4994 28.3168C34.8638 28.7723 35.3306 29.1366 35.8999 29.4099C36.4919 29.6831 37.1979 29.8198 38.0177 29.8198C38.8374 29.8198 39.532 29.6831 40.1013 29.4099C40.6934 29.1366 41.1716 28.7723 41.5359 28.3168C41.9003 27.8386 42.1621 27.3035 42.3215 26.7114C42.4809 26.1193 42.5606 25.4931 42.5606 24.8327V11.9552C42.5606 11.012 43.3253 10.2473 44.2685 10.2473H46.6937C47.637 10.2473 48.4016 11.012 48.4016 11.9552V25.3109Z" fill="#647B64"/>
</svg>
