<svg width="19" height="13" viewBox="0 0 19 13" fill="none" xmlns="http://www.w3.org/2000/svg">
<path d="M17.8672 6.11567L12.5861 0.8308C12.4843 0.751522 12.3572 0.712217 12.2286 0.72027C12.0999 0.728322 11.9786 0.783177 11.8875 0.87453C11.7964 0.965883 11.7416 1.08745 11.7336 1.21639C11.7256 1.34533 11.7648 1.47278 11.8439 1.57479L16.2206 5.96174H1.48649C1.34621 5.96174 1.21166 6.0176 1.11246 6.11703C1.01326 6.21647 0.957535 6.35132 0.957535 6.49194C0.957535 6.63256 1.01326 6.76742 1.11246 6.86685C1.21166 6.96628 1.34621 7.02214 1.48649 7.02214H16.212L11.8439 11.4005C11.7846 11.4467 11.7359 11.5049 11.7008 11.5714C11.6657 11.6379 11.6452 11.7111 11.6405 11.7861C11.6358 11.8612 11.6472 11.9364 11.6737 12.0067C11.7002 12.077 11.7414 12.1409 11.7944 12.1941C11.8475 12.2473 11.9112 12.2885 11.9814 12.3151C12.0515 12.3417 12.1265 12.353 12.2014 12.3483C12.2763 12.3437 12.3493 12.3231 12.4156 12.2879C12.482 12.2528 12.5401 12.2039 12.5861 12.1445L17.8672 6.85111C17.9621 6.75232 18.0151 6.62052 18.0151 6.48339C18.0151 6.34626 17.9621 6.21446 17.8672 6.11567Z" fill="#FEFEFE"/>
</svg>
